<?xml version="1.0" encoding="utf-8"?>
<!-- Generator: Adobe Illustrator 25.4.1, SVG Export Plug-In . SVG Version: 6.00 Build 0)  -->
<svg version="1.1" id="Layer_1" xmlns="http://www.w3.org/2000/svg" xmlns:xlink="http://www.w3.org/1999/xlink" x="0px" y="0px"
	 viewBox="0 0 300 90.8" style="enable-background:new 0 0 300 90.8;" xml:space="preserve">
<style type="text/css">
	.st0{fill-rule:evenodd;clip-rule:evenodd;fill:#1E4380;}
	.st1{fill-rule:evenodd;clip-rule:evenodd;fill:#D12434;}
	.st2{fill-rule:evenodd;clip-rule:evenodd;fill:#07A14A;}
	.st3{fill:#1E4380;}
</style>
<g>
	<path class="st0" d="M30.96,57.09c-3.41-5.62-5.36-12.12-5.6-18.69c-0.1-2.89,0.01-5.85,0.86-8.63c0.22-0.72,0.57-1.51,1.29-1.72
		c0.62-0.17,1.29,0.18,1.66,0.7c0.38,0.52,0.52,1.17,0.64,1.79c1.06,5.47,1.06,11.17,2.82,16.47c2.26,6.8,7.29,12.4,13.1,16.6
		c0.55,0.4,1.14,0.8,1.81,0.92c0.67,0.12,1.46-0.11,1.78-0.71c0.26-0.48,0.17-1.06,0.08-1.59c-1.24-6.87-3.34-13.65-6.83-19.7
		c-4.07-7.04-9.9-12.88-15.66-18.63c0.01-1.08,1.12-1.9,2.19-1.96c1.08-0.07,2.11,0.43,3.04,0.96c6.53,3.71,11.22,9.93,15.25,16.27
		c4.88,7.69,9.16,16.16,9.56,25.26c0.03,0.58,0.03,1.19-0.22,1.71c-0.38,0.78-1.24,1.2-2.05,1.51c-3.62,1.37-7.7,1.8-11.4,0.64
		c-3.85-1.21-7.01-4.03-9.53-7.19C32.74,59.82,31.8,58.48,30.96,57.09z"/>
	<path class="st1" d="M50.53,33.7c0.23,0.01,0.46,0,0.66-0.1c0.23-0.11,0.39-0.32,0.54-0.53c0.42-0.61,0.74-1.28,1.16-1.89
		c0.42-0.61,0.95-1.18,1.65-1.43c0.96-0.35,2.08-0.03,2.83,0.67c0.75,0.69,1.15,1.7,1.25,2.72s-0.05,2.04-0.28,3.03
		c-0.17,0.76-0.47,1.6-1.19,1.89c-0.42,0.17-0.91,0.1-1.34-0.03c-0.94-0.29-1.79-0.86-2.4-1.62c-0.64-0.79-1.07-1.81-1.95-2.32
		c-0.67-0.38-1.48-0.4-2.24-0.33c-0.22,0.02-0.46,0.05-0.62,0.21c-0.12,0.12-0.17,0.29-0.2,0.45c-0.21,1.02,0.15,2.07,0.64,2.99
		c0.83,1.55,2.02,3.06,3.61,3.94c1.97,1.09,4.04,0.73,6-0.2c1.48-0.71,2.99-1.76,3.76-3.28c0.75-1.47,0.72-3.23,0.52-4.83
		c-0.19-1.51-0.41-3.26-1.44-4.45c-0.16-0.18-0.33-0.36-0.5-0.52c-1.6-1.54-3.84-2.38-6.06-2.32c-2.22,0.07-4.39,1.05-5.93,2.65
		c-1.12,1.17-2.62,3.59-0.7,4.76c0.59,0.36,1.29,0.46,1.97,0.54C50.35,33.69,50.44,33.7,50.53,33.7z"/>
	<path class="st2" d="M63.85,41.03c1.18-1.82,2.52-3.53,3.99-5.12c3.31-3.59,7.3-6.56,11.73-8.61c0.27-0.12,0.53-0.24,0.8-0.36
		c0.14-0.06,0.31-0.12,0.44-0.05c0.12,0.07,0.17,0.22,0.2,0.35c0.23,1.04,0.34,2.13,0.1,3.18c-0.61,2.65-3.17,4.29-5.34,5.93
		c-4.22,3.2-7.69,7.48-9.55,12.44s-2.06,10.6-0.15,15.54c3.51-2.16,6.3-5.34,8.49-8.83c2.19-3.49,3.82-7.29,5.39-11.1
		c1.67-4.04,3.29-8.15,3.92-12.47c0.27-1.84,0.35-3.71,0.73-5.52c0.25-1.19,0.88-2.57,2.09-2.7c1.17-0.13,2.07,1.01,2.54,2.08
		c1.06,2.45,1.13,5.2,0.97,7.86c-0.54,8.79-3.58,17.41-8.67,24.59c-0.54,0.76-1.1,1.5-1.74,2.17c-0.61,0.64-1.3,1.2-1.98,1.76
		c-0.7,0.58-1.4,1.15-2.13,1.7c-2.81,2.09-6.04,3.63-9.44,4.48c-1.07,0.27-2.23,0.47-3.27,0.08c-1.52-0.57-2.31-2.21-2.84-3.75
		c-0.98-2.89-1.51-5.94-1.56-8.99c-0.02-1.39,0.11-2.6,0.46-3.94c0.32-1.18,0.69-2.34,1.12-3.48
		C61.13,45.74,62.37,43.31,63.85,41.03z"/>
	<g id="napis_inder_regular_13_x2F_15_1_">
		<path class="st3" d="M112.5,25.54h-8.02v4.4h6.2v1.8h-6.2v6.87h-2.15V23.67h10.17V25.54z"/>
		<path class="st3" d="M117.29,27.54v6.06c0,2.77,0.75,3.35,2.3,3.35c1.16,0,2.14-0.45,2.81-1.04v-8.37h2.15v11.08h-1.93l-0.19-1.17
			c-1.12,0.95-2.52,1.34-3.51,1.34c-2.69,0-3.77-1.32-3.77-5.09v-6.16H117.29z"/>
		<path class="st3" d="M135.48,38.62v-6.06c0-2.56-0.93-3.35-2.48-3.35c-1.25,0-2.17,0.49-2.85,1.08v8.32h-2.15V27.54H130l0.15,1.2
			c1.19-0.93,2.56-1.37,3.62-1.37c2.58,0,3.87,1.43,3.87,5.2v6.06H135.48z"/>
		<path class="st3" d="M147.99,22.64h2.14v15.98h-1.92l-0.09-1.28c-0.33,0.46-1.49,1.45-3.11,1.45c-1.82,0-4.56-1.18-4.56-5.49
			c0-4.23,3.36-5.94,6.53-5.94c0.39,0,0.71,0.02,1.02,0.04V22.64z M147.98,35.71v-6.6c-0.21-0.04-0.77-0.09-1.12-0.09
			c-2.53,0-4.19,1.26-4.19,4.28c0,3.11,1.69,3.83,2.76,3.83C146.82,37.14,147.71,36.22,147.98,35.71z"/>
		<path class="st3" d="M161.03,37.34c-0.33,0.46-1.46,1.44-3.08,1.44c-1.82,0-4.56-1.17-4.56-5.48c0-4.23,3.36-5.94,6.53-5.94
			c1.44,0,2.24,0.09,3.14,0.17v11.08h-1.93L161.03,37.34z M160.9,35.71v-6.59c-0.22-0.04-0.75-0.09-1.1-0.09
			c-2.53,0-4.19,1.25-4.19,4.27c0,3.11,1.69,3.82,2.76,3.82C159.76,37.13,160.63,36.22,160.9,35.71z"/>
		<path class="st3" d="M174.44,36.67v1.92c-0.55,0.17-1.69,0.2-2.45,0.2c-3.66,0-6-2.11-6-5.84c0-3.78,3.09-5.58,6.22-5.58
			c0.76,0,1.6,0.01,2.15,0.11v1.91c-0.4-0.13-1.22-0.29-2.13-0.29c-2.89,0-4.01,1.81-4.01,3.86c0,2.15,1.01,4.08,3.79,4.08
			C172.92,37.03,174.05,36.84,174.44,36.67z"/>
		<path class="st3" d="M179.62,38.84c0,2.05-0.66,4.25-3.68,4.25c-0.24,0-0.51-0.03-0.77-0.06v-1.65c0.18,0.05,0.4,0.09,0.57,0.09
			c1.2,0,1.74-0.63,1.74-2.63V27.54h2.15V38.84z M179.96,24.31c0,0.82-0.6,1.27-1.42,1.27c-0.78,0-1.38-0.45-1.38-1.27
			c0-0.83,0.59-1.27,1.38-1.27C179.36,23.04,179.96,23.48,179.96,24.31z"/>
		<path class="st3" d="M190.33,37.34c-0.33,0.46-1.46,1.44-3.08,1.44c-1.81,0-4.56-1.17-4.56-5.48c0-4.23,3.36-5.94,6.53-5.94
			c1.44,0,2.24,0.09,3.14,0.17v11.08h-1.93L190.33,37.34z M190.2,35.71v-6.59c-0.21-0.04-0.75-0.09-1.1-0.09
			c-2.53,0-4.19,1.25-4.19,4.27c0,3.11,1.69,3.82,2.76,3.82C189.06,37.13,189.93,36.22,190.2,35.71z"/>
		<path class="st3" d="M112.67,64c-3.45,0-5.48-2.74-6.12-5.48h-1.9V64h-2.15V49.05h4.24c4.89,0,5.91,2.55,5.91,4.69
			c0,2.79-1.74,4.22-4.06,4.65c0.59,1.87,2.07,3.51,3.87,3.57c0.17,0.01,0.52,0,0.7-0.04V64H112.67z M104.65,50.77v6.04h1.95
			c2.58,0,3.81-0.99,3.81-3.09c0-1.74-1.03-2.94-3.63-2.94H104.65z"/>
		<path class="st3" d="M119.96,64.17c-2.91,0-5.51-2.14-5.51-5.73c0-3.62,2.61-5.75,5.52-5.75c2.87,0,5.38,2.13,5.38,5.75
			C125.36,62.03,122.83,64.17,119.96,64.17z M119.96,62.52c2.28,0,3.16-2.03,3.16-4.08c0-2.07-0.96-4.09-3.15-4.09
			c-2.29,0-3.29,2.02-3.29,4.09C116.69,60.49,117.59,62.52,119.96,62.52z"/>
		<path class="st3" d="M135.15,48.02h2.14V64h-1.92l-0.09-1.28c-0.33,0.46-1.49,1.45-3.11,1.45c-1.81,0-4.56-1.18-4.56-5.49
			c0-4.23,3.36-5.94,6.53-5.94c0.39,0,0.71,0.02,1.02,0.04V48.02z M135.14,61.09v-6.6c-0.22-0.04-0.77-0.09-1.12-0.09
			c-2.53,0-4.19,1.26-4.19,4.29c0,3.11,1.69,3.83,2.76,3.83C133.98,62.52,134.87,61.59,135.14,61.09z"/>
		<path class="st3" d="M149.3,52.92v1.25l-6.54,8.12h6.78V64h-9.43v-1.25l6.44-8.12h-6.05v-1.72H149.3z"/>
		<path class="st3" d="M154.33,49.69c0,0.82-0.6,1.27-1.42,1.27c-0.78,0-1.37-0.45-1.37-1.27c0-0.83,0.59-1.27,1.37-1.27
			C153.73,48.43,154.33,48.87,154.33,49.69z M153.96,64h-2.15V52.92h2.15V64z"/>
		<path class="st3" d="M165.29,62.04v1.92c-0.55,0.17-1.69,0.2-2.45,0.2c-3.66,0-6-2.1-6-5.84c0-3.78,3.09-5.58,6.22-5.58
			c0.76,0,1.6,0.01,2.15,0.11v1.91c-0.4-0.13-1.22-0.29-2.13-0.29c-2.89,0-4.01,1.81-4.01,3.86c0,2.15,1.01,4.08,3.79,4.08
			C163.77,62.41,164.9,62.22,165.29,62.04z M163.22,50.53h-1.91l2.49-3.94h2.51L163.22,50.53z"/>
		<path class="st3" d="M177.82,54.18c0.33-0.46,1.46-1.44,3.1-1.44c1.82,0,4.54,1.24,4.54,5.45c0,4.23-3.34,5.97-6.51,5.97
			c-0.37,0-0.72,0-1.01-0.01v4.15h-2.15V52.92h1.93L177.82,54.18z M177.95,55.82v6.59c0.21,0.04,0.77,0.09,1.12,0.09
			c2.53,0,4.17-1.28,4.17-4.31c0-3.11-1.72-3.79-2.77-3.79C179.13,54.4,178.21,55.29,177.95,55.82z"/>
		<path class="st3" d="M193.27,64.17c-2.91,0-5.51-2.14-5.51-5.73c0-3.62,2.61-5.75,5.52-5.75c2.87,0,5.38,2.13,5.38,5.75
			C198.66,62.03,196.14,64.17,193.27,64.17z M193.27,62.52c2.28,0,3.16-2.03,3.16-4.08c0-2.07-0.96-4.09-3.15-4.09
			c-2.29,0-3.29,2.02-3.29,4.09C189.99,60.49,190.9,62.52,193.27,62.52z"/>
		<path class="st3" d="M210.76,49.05v13.06h6.4V64h-8.55V49.05H210.76z"/>
		<path class="st3" d="M221.76,52.92v6.06c0,2.77,0.75,3.35,2.3,3.35c1.16,0,2.14-0.45,2.81-1.04v-8.37h2.15V64h-1.93l-0.19-1.17
			c-1.12,0.95-2.52,1.34-3.51,1.34c-2.69,0-3.77-1.32-3.77-5.09v-6.16H221.76z"/>
		<path class="st3" d="M239.63,48.02h2.14V64h-1.92l-0.09-1.28c-0.33,0.46-1.49,1.45-3.11,1.45c-1.82,0-4.56-1.18-4.56-5.49
			c0-4.23,3.36-5.94,6.53-5.94c0.39,0,0.71,0.02,1.02,0.04V48.02z M239.62,61.09v-6.6c-0.21-0.04-0.77-0.09-1.12-0.09
			c-2.53,0-4.19,1.26-4.19,4.29c0,3.11,1.69,3.83,2.76,3.83C238.46,62.52,239.35,61.59,239.62,61.09z"/>
		<path class="st3" d="M253.78,52.92v1.25l-6.54,8.12h6.78V64h-9.43v-1.25l6.44-8.12h-6.05v-1.72H253.78z"/>
		<path class="st3" d="M258.62,58.35V64h-2.15V48.03h2.15v9.85l4.49-4.96h2.56l-4.78,5.03l5.03,6.06h-2.62L258.62,58.35z"/>
		<path class="st3" d="M269.42,52.92v6.06c0,2.77,0.75,3.35,2.3,3.35c1.16,0,2.14-0.45,2.81-1.04v-8.37h2.15V64h-1.93l-0.19-1.17
			c-1.12,0.95-2.52,1.34-3.51,1.34c-2.68,0-3.77-1.32-3.77-5.09v-6.16H269.42z"/>
	</g>
</g>
</svg>
